<mxfile host="app.diagrams.net" modified="2023-01-09T15:33:22.848Z" agent="5.0 (Windows NT 10.0; Win64; x64) AppleWebKit/537.36 (KHTML, like Gecko) Chrome/108.0.0.0 Safari/537.36" version="20.7.4" etag="QS5u8Rl60XcJbocIfYFF" type="github">
  <diagram id="WbotLsczqwgPzfg7mPug" name="第 1 页">
    <mxGraphModel dx="1050" dy="549" grid="0" gridSize="11" guides="1" tooltips="1" connect="1" arrows="1" fold="1" page="1" pageScale="1" pageWidth="827" pageHeight="1169" math="0" shadow="0">
      <root>
        <mxCell id="0" />
        <mxCell id="VeNH2hmjnqjpLgN5KsLj-65" parent="0" />
        <mxCell id="VeNH2hmjnqjpLgN5KsLj-66" value="未命名图层" parent="0" />
        <mxCell id="VeNH2hmjnqjpLgN5KsLj-67" value="未命名图层" parent="0" />
      </root>
    </mxGraphModel>
  </diagram>
</mxfile>
